<svg xmlns="http://www.w3.org/2000/svg" xmlns:xlink="http://www.w3.org/1999/xlink" width="500" zoomAndPan="magnify" viewBox="0 0 375 374.999991" height="500" preserveAspectRatio="xMidYMid meet" version="1.0"><defs><g/><clipPath id="50031740d5"><path d="M 29.066406 199.855469 L 350.742188 199.855469 L 350.742188 236.929688 L 29.066406 236.929688 Z M 29.066406 199.855469 " clip-rule="nonzero"/></clipPath></defs><g fill="#ffffff" fill-opacity="1"><g transform="translate(7.014443, 184.454784)"><g><path d="M 20.640625 0 L 20.640625 -1.296875 L 23.625 -1.296875 C 30.71875 -1.296875 34.265625 -4.410156 34.265625 -10.640625 L 34.265625 -40.625 L 11.15625 -84.5 C 9.769531 -87.09375 8.425781 -88.882812 7.125 -89.875 C 5.832031 -90.875 4.109375 -91.375 1.953125 -91.375 L -0.65625 -91.375 L -0.65625 -92.671875 L 35.046875 -92.671875 L 35.046875 -91.375 L 30.625 -91.375 C 26.644531 -91.375 24.65625 -90.207031 24.65625 -87.875 C 24.65625 -86.3125 25.519531 -83.800781 27.25 -80.34375 L 38.421875 -58.796875 C 40.234375 -55.335938 41.851562 -52.132812 43.28125 -49.1875 C 44.707031 -46.25 45.859375 -43.785156 46.734375 -41.796875 C 47.765625 -43.785156 49.035156 -46.289062 50.546875 -49.3125 C 52.066406 -52.34375 53.691406 -55.503906 55.421875 -58.796875 L 65.28125 -77.875 C 67.363281 -81.769531 68.40625 -84.753906 68.40625 -86.828125 C 68.40625 -88.472656 67.710938 -89.640625 66.328125 -90.328125 C 64.941406 -91.023438 62.78125 -91.375 59.84375 -91.375 L 54.640625 -91.375 L 54.640625 -92.671875 L 82.421875 -92.671875 L 82.421875 -91.375 L 79.171875 -91.375 C 77.097656 -91.375 75.300781 -90.640625 73.78125 -89.171875 C 72.269531 -87.703125 70.519531 -85.0625 68.53125 -81.25 L 47.375 -40.359375 L 47.375 -10.640625 C 47.375 -4.410156 50.921875 -1.296875 58.015625 -1.296875 L 61 -1.296875 L 61 0 Z M 20.640625 0 "/></g></g></g><g fill="#ffffff" fill-opacity="1"><g transform="translate(88.137519, 184.454784)"><g><path d="M 48.15625 1.296875 C 38.976562 1.296875 31.359375 -0.691406 25.296875 -4.671875 C 19.242188 -8.648438 14.722656 -14.226562 11.734375 -21.40625 C 8.753906 -28.59375 7.265625 -36.988281 7.265625 -46.59375 C 7.265625 -56.195312 8.753906 -64.546875 11.734375 -71.640625 C 14.722656 -78.742188 19.269531 -84.265625 25.375 -88.203125 C 31.476562 -92.140625 39.113281 -94.109375 48.28125 -94.109375 C 56.9375 -94.109375 64.289062 -92.140625 70.34375 -88.203125 C 76.40625 -84.265625 81.015625 -78.722656 84.171875 -71.578125 C 87.328125 -64.441406 88.90625 -56.070312 88.90625 -46.46875 C 88.90625 -36.863281 87.328125 -28.488281 84.171875 -21.34375 C 81.015625 -14.207031 76.40625 -8.648438 70.34375 -4.671875 C 64.289062 -0.691406 56.894531 1.296875 48.15625 1.296875 Z M 48.15625 0 C 57.414062 0 64.117188 -3.675781 68.265625 -11.03125 C 72.421875 -18.382812 74.5 -30.195312 74.5 -46.46875 C 74.5 -62.738281 72.421875 -74.53125 68.265625 -81.84375 C 64.117188 -89.15625 57.457031 -92.8125 48.28125 -92.8125 C 39.019531 -92.8125 32.269531 -89.15625 28.03125 -81.84375 C 23.789062 -74.53125 21.671875 -62.738281 21.671875 -46.46875 C 21.671875 -30.195312 23.769531 -18.382812 27.96875 -11.03125 C 32.164062 -3.675781 38.894531 0 48.15625 0 Z M 48.15625 0 "/></g></g></g><g fill="#ffffff" fill-opacity="1"><g transform="translate(184.446824, 184.454784)"><g><path d="M 4.9375 0 L 4.9375 -1.296875 L 8.703125 -1.296875 C 15.796875 -1.296875 19.34375 -4.410156 19.34375 -10.640625 L 19.34375 -82.546875 C 19.34375 -88.429688 15.796875 -91.375 8.703125 -91.375 L 4.9375 -91.375 L 4.9375 -92.671875 L 30.25 -92.671875 L 79.703125 -18.5625 L 79.703125 -82.03125 C 79.703125 -88.257812 76.148438 -91.375 69.046875 -91.375 L 65.421875 -91.375 L 65.421875 -92.671875 L 95.40625 -92.671875 L 95.40625 -91.375 L 91.640625 -91.375 C 84.546875 -91.375 81 -88.257812 81 -82.03125 L 81 0 L 77.09375 0 L 20.640625 -84.625 L 20.640625 -10.640625 C 20.640625 -4.410156 24.1875 -1.296875 31.28125 -1.296875 L 34.921875 -1.296875 L 34.921875 0 Z M 4.9375 0 "/></g></g></g><g fill="#ffffff" fill-opacity="1"><g transform="translate(283.481871, 184.454784)"><g><path d="M 0 0 L 0 -1.296875 L 3.765625 -1.296875 C 6.535156 -1.296875 8.71875 -2.03125 10.3125 -3.5 C 11.914062 -4.976562 13.367188 -7.617188 14.671875 -11.421875 L 42.96875 -92.671875 L 49.578125 -92.671875 L 82.15625 -8.171875 C 83.113281 -5.578125 84.15625 -3.78125 85.28125 -2.78125 C 86.40625 -1.789062 87.914062 -1.296875 89.8125 -1.296875 L 91.5 -1.296875 L 91.5 0 L 55.8125 0 L 55.8125 -1.296875 L 58.796875 -1.296875 C 62.085938 -1.296875 64.46875 -1.6875 65.9375 -2.46875 C 67.40625 -3.25 68.140625 -4.632812 68.140625 -6.625 C 68.140625 -7.3125 68.050781 -8.148438 67.875 -9.140625 C 67.707031 -10.140625 67.40625 -11.203125 66.96875 -12.328125 L 59.0625 -33.625 L 23.875 -33.625 L 16.75 -13.234375 C 15.96875 -10.984375 15.578125 -9.125 15.578125 -7.65625 C 15.578125 -5.320312 16.613281 -3.675781 18.6875 -2.71875 C 20.769531 -1.769531 24.101562 -1.296875 28.6875 -1.296875 L 31.671875 -1.296875 L 31.671875 0 Z M 24.265625 -34.921875 L 58.53125 -34.921875 L 49.0625 -60.21875 C 45.6875 -68.957031 43.003906 -76.75 41.015625 -83.59375 C 40.148438 -81 39.390625 -78.703125 38.734375 -76.703125 C 38.085938 -74.710938 37.394531 -72.613281 36.65625 -70.40625 C 35.925781 -68.207031 35 -65.550781 33.875 -62.4375 Z M 24.265625 -34.921875 "/></g></g></g><g clip-path="url(#50031740d5)"><path fill="#f4f4f4" d="M 29.066406 199.855469 L 350.703125 199.855469 L 350.703125 236.929688 L 29.066406 236.929688 Z M 29.066406 199.855469 " fill-opacity="1" fill-rule="nonzero"/></g><g fill="#ffffff" fill-opacity="1"><g transform="translate(47.241807, 225.142118)"><g><path d="M 3.515625 -12.796875 L 11.375 -12.796875 L 11.375 -10.84375 L 7.25 0 L 3.90625 0 L 7.90625 -10.125 L 0.3125 -10.125 L 0.3125 -16.15625 L 3.515625 -16.15625 Z M 3.515625 -12.796875 "/></g></g></g><g fill="#ffffff" fill-opacity="1"><g transform="translate(75.587682, 225.142118)"><g><path d="M 2 0 L 2 -6.53125 C 2 -8.0625 2.535156 -9.238281 3.609375 -10.0625 L 3.609375 -10.125 L 0.421875 -10.125 L 0.421875 -12.796875 L 7.015625 -12.796875 L 7.015625 -10.71875 C 6.785156 -10.53125 6.53125 -10.3125 6.25 -10.0625 C 5.96875 -9.820312 5.71875 -9.488281 5.5 -9.0625 C 5.289062 -8.632812 5.1875 -8.082031 5.1875 -7.40625 L 5.1875 0 Z M 2 0 "/></g></g></g><g fill="#ffffff" fill-opacity="1"><g transform="translate(99.363142, 225.142118)"><g><path d="M 7.796875 0 L 7.796875 -7.953125 C 7.796875 -8.742188 7.648438 -9.300781 7.359375 -9.625 C 7.078125 -9.957031 6.609375 -10.125 5.953125 -10.125 L 0.21875 -10.125 L 0.21875 -12.796875 L 6.078125 -12.796875 C 9.359375 -12.796875 11 -11.300781 11 -8.3125 L 11 0 Z M 7.796875 0 "/></g></g></g><g fill="#ffffff" fill-opacity="1"><g transform="translate(128.282984, 225.142118)"><g><path d="M 0.53125 0 L 0.53125 -2.671875 L 7.3125 -2.671875 L 7.3125 -7.953125 C 7.3125 -8.742188 7.171875 -9.300781 6.890625 -9.625 C 6.609375 -9.957031 6.132812 -10.125 5.46875 -10.125 L 0.53125 -10.125 L 0.53125 -12.796875 L 5.59375 -12.796875 C 8.863281 -12.796875 10.5 -11.300781 10.5 -8.3125 L 10.5 -2.671875 L 12.15625 -2.671875 L 12.15625 0 Z M 0.53125 0 "/></g></g></g><g fill="#ffffff" fill-opacity="1"><g transform="translate(157.202825, 225.142118)"><g/></g></g><g fill="#ffffff" fill-opacity="1"><g transform="translate(178.852519, 225.142118)"><g><path d="M 0.640625 0 L 0.640625 -2.671875 L 2.0625 -2.671875 C 2.269531 -2.671875 2.441406 -2.742188 2.578125 -2.890625 C 2.710938 -3.035156 2.78125 -3.242188 2.78125 -3.515625 L 2.78125 -10.125 L 0.71875 -10.125 L 0.71875 -12.796875 L 8.734375 -12.796875 C 12.015625 -12.796875 13.65625 -11.300781 13.65625 -8.3125 L 13.65625 0 L 10.46875 0 L 10.46875 -7.953125 C 10.46875 -8.742188 10.320312 -9.300781 10.03125 -9.625 C 9.75 -9.957031 9.273438 -10.125 8.609375 -10.125 L 5.96875 -10.125 L 5.96875 -3.875 C 5.96875 -2.5625 5.691406 -1.585938 5.140625 -0.953125 C 4.585938 -0.316406 3.734375 0 2.578125 0 Z M 0.640625 0 "/></g></g></g><g fill="#ffffff" fill-opacity="1"><g transform="translate(210.429581, 225.142118)"><g><path d="M 1.703125 0 L 1.703125 -12.796875 L 4.890625 -12.796875 L 4.890625 0 Z M 1.703125 0 "/></g></g></g><g fill="#ffffff" fill-opacity="1"><g transform="translate(233.354728, 225.142118)"><g><path d="M 6.734375 0 L 6.734375 -10.125 L 0.21875 -10.125 L 0.21875 -12.796875 L 11.859375 -12.796875 L 11.859375 -10.125 L 9.9375 -10.125 L 9.9375 0 Z M 6.734375 0 "/></g></g></g><g fill="#ffffff" fill-opacity="1"><g transform="translate(261.976949, 225.142118)"><g><path d="M 1.703125 0 L 1.703125 -12.796875 L 4.890625 -12.796875 L 4.890625 0 Z M 1.703125 0 "/></g></g></g><g fill="#ffffff" fill-opacity="1"><g transform="translate(284.902095, 225.142118)"><g><path d="M 0.53125 0 L 0.53125 -2.671875 L 7.3125 -2.671875 L 7.3125 -7.953125 C 7.3125 -8.742188 7.171875 -9.300781 6.890625 -9.625 C 6.609375 -9.957031 6.132812 -10.125 5.46875 -10.125 L 0.53125 -10.125 L 0.53125 -12.796875 L 5.59375 -12.796875 C 8.863281 -12.796875 10.5 -11.300781 10.5 -8.3125 L 10.5 -2.671875 L 12.15625 -2.671875 L 12.15625 0 Z M 0.53125 0 "/></g></g></g><g fill="#ffffff" fill-opacity="1"><g transform="translate(313.821932, 225.142118)"><g><path d="M 0.3125 0 L 0.3125 -2.671875 L 3.640625 -2.671875 L 1.140625 -12.796875 L 4.34375 -12.796875 L 6.734375 -2.9375 C 7.648438 -3.226562 8.335938 -3.785156 8.796875 -4.609375 C 9.265625 -5.429688 9.566406 -6.582031 9.703125 -8.0625 L 10.203125 -12.796875 L 13.390625 -12.796875 L 12.90625 -7.96875 C 12.832031 -7.332031 12.71875 -6.648438 12.5625 -5.921875 C 12.40625 -5.203125 12.15625 -4.492188 11.8125 -3.796875 C 11.476562 -3.097656 11.015625 -2.457031 10.421875 -1.875 C 9.835938 -1.300781 9.085938 -0.84375 8.171875 -0.5 C 7.265625 -0.164062 6.144531 0 4.8125 0 Z M 0.3125 0 "/></g></g></g></svg>